<svg xmlns="http://www.w3.org/2000/svg" viewBox="0 0 512 512"><path d=" M 150 0 L 480 0 L 480 61 L 150 61 L 150 0 Z "/><path d=" M 150 338.25 L 480 338.25 L 480 399.25 L 150 399.25 L 150 338.25 Z "/><path d=" M 150 112.75 L 480 112.75 L 480 173.75 L 150 173.75 L 150 112.75 Z "/><path d=" M 150 225.5 L 480 225.5 L 480 286.5 L 150 286.5 L 150 225.5 Z "/><path d=" M 150 451 L 480 451 L 480 512 L 150 512 L 150 451 Z "/><path d=" M 30.273 0 L 106 0 L 106 61 L 30.273 61 L 30.273 0 Z "/><path d=" M 30.273 338.25 L 106 338.25 L 106 399.25 L 30.273 399.25 L 30.273 338.25 Z "/><path d=" M 30.273 225.5 L 106 225.5 L 106 286.5 L 30.273 286.5 L 30.273 225.5 Z "/><path d=" M 30.273 112.75 L 106 112.75 L 106 173.75 L 30.273 173.75 L 30.273 112.75 Z "/><path d=" M 30.273 451 L 106 451 L 106 512 L 30.273 512 L 30.273 451 Z "/></svg>