<svg xmlns="http://www.w3.org/2000/svg" viewBox="0 0 512 512"><path d=" M 30 256 C 30 226.473 53.973 202.5 83.5 202.5 C 113.027 202.5 137 226.473 137 256 C 137 285.527 113.027 309.5 83.5 309.5 C 53.973 309.5 30 285.527 30 256 Z "/><path d=" M 202.5 256 C 202.5 226.473 226.473 202.5 256 202.5 C 285.527 202.5 309.5 226.473 309.5 256 C 309.5 285.527 285.527 309.5 256 309.5 C 226.473 309.5 202.5 285.527 202.5 256 Z "/><path d=" M 375 256 C 375 226.473 398.973 202.5 428.5 202.5 C 458.027 202.5 482 226.473 482 256 C 482 285.527 458.027 309.5 428.5 309.5 C 398.973 309.5 375 285.527 375 256 Z "/></svg>