<svg xmlns="http://www.w3.org/2000/svg" viewBox="0 0 512 512"><path d=" M 232.705 174.097 C 232.705 161.241 243.143 150.803 256 150.803 C 268.857 150.803 279.295 161.241 279.295 174.097 C 279.295 186.954 268.857 197.392 256 197.392 C 243.143 197.392 232.705 186.954 232.705 174.097 Z "/><path d=" M 0 21.333 L 149 69 L 149 490.667 L 0 444 L 0 21.333 Z "/><path d=" M 363 21.333 L 512 69 L 512 490.667 L 363 444 L 363 21.333 Z "/><path d=" M 173.375 69 L 338.625 21.333 L 338.625 444 L 173.375 490.667 L 173.375 69 Z  M 201.21 172.79 C 201.21 142.551 225.761 118 256 118 C 286.239 118 310.79 142.551 310.79 172.79 Q 310.79 203.029 256 283.439 Q 201.21 203.029 201.21 172.79 Z " fill-rule="evenodd"/></svg>