<svg xmlns="http://www.w3.org/2000/svg" viewBox="0 0 512 512"><path d=" M 311.273 433.636 C 322.575 430.118 333.416 425.551 343.682 420.048 Q 378.785 452.291 397.287 452.976 Q 416.308 453.681 435.329 433.329 L 435.329 433.329 Q 455.681 414.308 454.976 395.287 Q 454.285 376.613 421.444 341.026 L 421.444 341.026 C 426.327 331.552 430.42 321.605 433.636 311.273 L 433.636 311.273 Q 484.79 309.633 498.933 296.5 Q 512.808 283.616 511.95 256 Q 512.808 228.384 498.933 215.5 Q 484.79 202.367 433.636 200.727 L 433.636 200.727 C 430.242 189.822 425.87 179.345 420.623 169.4 L 420.623 169.4 Q 455.266 132.365 455.976 113.18 Q 456.672 94.401 436.844 75.622 Q 418.065 55.795 399.287 56.49 Q 380.141 57.199 343.217 91.704 L 343.217 91.704 C 333.088 86.312 322.404 81.829 311.273 78.364 Q 309.633 27.21 296.5 13.067 Q 283.616 -0.808 256 0.05 L 256 0.05 Q 228.384 -0.808 215.5 13.067 Q 202.367 27.21 200.727 78.364 L 200.727 78.364 C 189.72 81.79 179.151 86.211 169.123 91.523 L 169.123 91.523 Q 132.342 57.197 113.247 56.49 Q 94.468 55.795 75.689 75.622 Q 55.861 94.401 56.557 113.18 Q 57.264 132.27 91.57 169.035 L 91.57 169.035 C 86.237 179.089 81.8 189.688 78.364 200.727 L 78.364 200.727 Q 27.21 202.367 13.067 215.5 Q -0.808 228.384 0.05 256 Q -0.808 283.616 13.067 296.5 Q 27.21 309.633 78.364 311.273 L 78.364 311.273 C 81.543 321.487 85.58 331.325 90.389 340.702 L 90.389 340.702 Q 57.252 376.528 56.557 395.287 Q 55.852 414.308 76.204 433.329 L 76.204 433.329 Q 95.226 453.681 114.247 452.976 Q 132.793 452.29 168.023 419.889 C 178.377 425.463 189.317 430.085 200.727 433.636 L 200.727 433.636 Q 202.367 484.79 215.5 498.933 Q 228.384 512.808 256 511.95 Q 283.616 512.808 296.5 498.933 Q 309.633 484.79 311.273 433.636 Z  M 193.5 256 C 193.5 221.505 221.505 193.5 256 193.5 C 290.495 193.5 318.5 221.505 318.5 256 C 318.5 290.495 290.495 318.5 256 318.5 C 221.505 318.5 193.5 290.495 193.5 256 L 193.5 256 L 193.5 256 L 193.5 256 L 193.5 256 L 193.5 256 L 193.5 256 L 193.5 256 L 193.5 256 L 193.5 256 L 193.5 256 L 193.5 256 L 193.5 256 L 193.5 256 L 193.5 256 L 193.5 256 L 193.5 256 Z " fill-rule="evenodd"/></svg>