<svg xmlns="http://www.w3.org/2000/svg" viewBox="0 0 512 512"><path d=" M 140.75 115.25 C 140.75 51.642 192.392 0 256 0 C 319.608 0 371.25 51.642 371.25 115.25 Q 371.25 178.858 256 348 Q 140.75 178.858 140.75 115.25 Z  M 207 118 C 207 90.956 228.956 69 256 69 C 283.044 69 305 90.956 305 118 C 305 145.044 283.044 167 256 167 C 228.956 167 207 145.044 207 118 Z " fill-rule="evenodd"/><path d=" M 179 411 L 218.5 411 L 218.5 457 L 289.5 457 L 289.5 411 L 329 411 L 329 457 L 400 457 L 400 411 L 400 375 L 456.348 375 L 456.348 512 L 55.652 512 L 55.652 375 L 108 375 L 108 411 L 108 457 L 179 457 L 179 411 Z "/></svg>